<svg xmlns="http://www.w3.org/2000/svg" width="2000" height="784"><path fill="#216949" d="M751 5c1.219 25.464-8.826 42.759-22.833 63.375-7.14 10.645-12.377 21.385-15.355 33.875l-.755 3.122c-3.326 14.386-4.614 28.959-5.795 43.648l-.193 2.384c-.313 3.885-.615 7.771-.892 11.66-.638 8.566-1.75 16.85-3.476 25.268-1.893 8.258-1.893 8.258.111 16.168 2.078 4.133 3.203 7.984 4.188 12.5 5.533-8.433 9.299-17.214 12.89-26.608l1.094-2.806.96-2.53C722 183 722 183 725 181c1.22 3.658.733 5.707.152 9.52-1.5 10.798-1.89 21.658-2.414 32.538-.839 17.333-1.72 34.607-3.758 51.846-.913 7.81-1.392 15.57-1.338 23.438-.25 14.799-8.143 28.28-14.767 41.096a2490 2490 0 0 0-3.658 7.154 708 708 0 0 1-2.261 4.398c-2.343 4.574-4.38 9.11-5.956 14.01l1 3 2.813-1.5C698 365 698 365 701 365c-1.266 7.602-3.414 14.647-6.062 21.875l-1.197 3.29c-17.483 47.287-17.483 47.287-39.893 59.562C651 451 651 451 648 451l-.125 2.063c-2.8 9.4-13.215 14.722-20.875 19.937l2.177.06c21.488.62 40.92 2.008 61.742 7.464 12.254 3.157 23.471 4.18 36.081 2.476-2.731 2.888-5.483 5.09-8.812 7.25-9.003 6.328-12.493 11.646-15.286 22.118-6.924 25.58-26.18 43.007-47.327 57.402-1.72 1.161-1.72 1.161-2.575 3.23l5-1 1 3c-8.015 8.844-18.481 14.641-28.937 20.125l-3.303 1.762A1088 1088 0 0 1 617 602l-3.258 1.699c-20.145 10.326-38.828 8.207-60.228 3.458-12.761-2.777-24.56-4.683-36.514 1.843l-2.957 1.543C503.961 616.085 496.271 623.178 489 632l-1.342 1.608c-13.955 16.735-26.451 34.181-37.963 52.679-1.675 2.68-3.367 5.349-5.066 8.014l-1.63 2.56-3.005 4.711c-3.194 5.04-6.148 10.183-8.994 15.428a231 231 0 0 0 19.531-8.633c9.552-3.765 19.693-3.92 29.836-4.402 7.33-.457 12.974-1.958 19.633-4.965a247 247 0 0 1 4.676-1.71c.759-.273 1.517-.546 2.3-.826l2.337-.839c5.742-2.077 11.307-4.292 16.812-6.937 10.525-4.97 19.942-5.954 31.121-2.024q2.598.973 5.192 1.961c6.802 2.418 12.152 4.068 19.406 2.86 12.138-1.863 24.562-1.972 34.761 5.398 13.411 11.053 18.778 29.535 24.065 45.606a872 872 0 0 0 1.98 5.915l1.276 3.842 1.138 3.428c.967 3.437 1.51 6.784 1.936 10.326-4.914-.421-6.647-2.565-10-6-9.626-6.044-22.705-6.375-33.586-4.324l-3.539.824c-9.72 2.261-17.699 3.026-26.617-1.992-2.815-1.88-5.337-3.94-7.785-6.274-3.154-2.643-6.364-2.274-10.273-2.168-16.52.431-27.855-5.713-40.992-15.313-4.486-3.276-9.1-6.257-13.845-9.148-2.232-1.516-3.796-3.07-5.613-5.043-4.29-3.857-9.439-3.13-14.906-2.882L476 714l-3.219.258c-10.132 1.253-18.328 5.434-25.969 12.117-4.457 3.86-8.773 6.143-14.125 8.438-8.374 3.637-14.532 8.638-21.188 14.803-6.758 6.24-14.005 11.035-21.955 15.583-6.015 3.443-11.767 7.184-17.493 11.086-4.374 2.458-7.62 2.92-12.551 2.215-5.512-2.362-8.423-5.969-10.75-11.437.396-4.857 2.892-7.664 6.25-11.063 4.588-3.775 9.67-6.367 15-8.937 17.08-8.4 29.26-23.787 40-39.063l1.364-1.915C427.253 683.657 433.558 660.907 438 634l.355-2.133q1.124-6.752 2.173-13.517.342-2.19.697-4.38c2.403-14.913.717-28.453-1.809-43.222-.422-2.469-.833-4.94-1.244-7.41q-.397-2.362-.797-4.725l-.373-2.231c-.627-3.805-.627-3.805-2.002-7.382-5.584 3.456-11.002 6.965-16.187 11-6.796 4.93-14.01 8.061-21.813 11l-3.53 1.344C374.926 579.329 357.979 583.787 338 584q-3.01.084-6.017.173c-2.791.077-5.582.128-8.373.17-1.982.031-3.963.072-5.944.113-8.034.01-14.356-1.12-21.666-4.456l-3.602-1.633q-3.032-1.497-6.062-3c-6.35-2.602-12.898-3.503-19.679-4.303C248.35 568.849 226.791 563.092 213 550c-.812-2.25-.812-2.25-1-4l1.828-.48c5.196-1.517 8.19-2.722 11.172-7.52-3.8-5.271-7.674-9.064-14-11-8.38-.992-16.997-.094-25.375.5-7.684.504-15.364.786-23.062.938l-3.629.14c-8.149.1-12.711-1.352-18.934-6.578l-2.82-2.012a1686 1686 0 0 1-4.625-3.375c-6.188-3.907-11.274-5.114-18.43-4.988l-2.491.022c-9.525.21-19.041 1.597-28.142 4.455-3.878.997-7.122 1.026-11.117.898-6.322-.13-12.188.474-18.434 1.547C43.34 520.18 30.315 519.559 21 514l-2-3c6.162-2.046 11.783-2.347 18.24-2.39 7.678-.237 13.16-3.206 19.26-7.735 3.707-2.678 7.491-5.115 11.402-7.478 7.422-4.5 13.956-9.203 20.098-15.397l2.418-2.281C101.082 465.007 108.836 451.64 117 439l-2-1c.389-4.952 2.879-7.466 6.313-10.75l1.637-1.59C148.366 401.456 184.8 389.619 219 385c-4.78-4.967-9.558-9.756-15-14-12.223-9.785-23.636-21.448-33-34l-2.086-2.71c-5.337-7.195-5.337-7.195-4.914-12.29a98 98 0 0 1 9 4c-10.301-29.956-33.175-57.428-53.789-81-11.738-13.58-11.738-13.58-14.211-21 2.666.08 4.462.496 6.434 2.344l1.566 1.719c4.884 5.17 10.856 8.453 17 11.937.972.56 1.944 1.121 2.945 1.7 7.367 3.984 14.859 6.044 22.97 7.828 2.048.464 4.08.973 6.112 1.5 10.856 2.768 21.765 4.323 32.883 5.647C197 257 197 257 200 258v3l-4 1 2 3c.125 3.188.125 3.188 0 6h-3v5l1.828.77c4.104 1.767 7.633 3.478 11.172 6.23 1.331.342 2.664.678 4 1l1 2 3 1 1-3c-.98-1.792-.98-1.792-2.437-3.5C212 277.316 212 277.316 212 274c2.972 1.125 5.334 2.223 8 4 2.05.451 2.05.451 4.188.625L228 279q-3.05-2.29-6.105-4.57l-2.083-1.555-2.105-1.57C216 270 216 270 215 269a100 100 0 0 1 0-5l-2.937.063C209 264 209 264 208 263a100 100 0 0 1 0-5l3-1 1 4v-4c4.044-1.037 7.33-.916 11.46-.398l3.831.477q2.043.27 4.084.546l2.104.28c22.275 2.994 42.908 8.553 64.097 15.908q5.09 1.767 10.194 3.496l2.913.99c2.233.798 2.233.798 4.317.701l-1.531-1.68-1.969-2.195-1.969-2.18C308 271 308 271 308 269c12.929-.722 26.011 10.691 35.355 18.89 6.466 5.833 12.61 11.999 18.696 18.223 2.819 2.823 5.817 5.414 8.832 8.024 4.399 3.87 8.605 7.952 12.85 11.99 3.3 3.127 6.614 6.207 10.083 9.146C417.174 355.066 427.976 388.451 431 418c.625 11.043.387 22.029-1 33l2.074.676c3.714 1.68 6.582 3.96 9.738 6.512l1.867 1.488c5.284 4.236 10.528 8.531 15.321 13.324l.366-1.92q1.895-9.93 3.797-19.857l1.414-7.403q1.018-5.333 2.04-10.664l.632-3.321c.866-4.506 1.752-8.984 2.893-13.43 1.155-4.325 1.155-4.325-.142-8.405-2.42-2.158-5.092-3.869-7.812-5.625-7.763-5.235-14.489-10.84-21.188-17.375l-2.09-1.902c-28.016-26.183-43.576-69.132-45.017-106.9-.198-18.814 5.403-36.447 11.107-54.198l1.088-3.409C414.81 191.545 426.042 168.233 445 147l1.396-1.583C474.317 113.807 526.475 74.834 569 68l1 2c-1.733 3.342-3.372 6.264-5.812 9.125-1.44 1.876-1.44 1.876-1.063 4.5.732 2.705.732 2.705 3.875 4.375 6.974-.188 13.268-3.248 19.688-5.75 14.756-5.593 29.058-10.321 44.914-11.023 10.954-.73 21.731-3.72 32.322-6.467 4.233-1.09 8.36-2.012 12.701-2.573 22.385-3.835 51.955-22.245 65.121-40.624C745.003 16.439 746.713 11.899 748 6c2-1 2-1 3-1m-81 91-1 2 3-1zm-12.312 10.313c-8.969 7.87-8.969 7.87-14.2 9.44-3.633 1.82-5.254 4.817-7.3 8.185l-1.233 1.92c-2.386 3.78-2.386 3.78-2.955 8.142 6.996-6.29 13.788-12.722 20.396-19.418 3.592-3.622 7.285-7.052 11.213-10.312 1.526-1.24 1.526-1.24 2.391-3.27-3.49 0-5.792 3.094-8.312 5.313M615 151c-12.744 13.403-23.32 28.706-34.234 43.593q-3.504 4.773-7.018 9.536l-3.498 4.75c-2.902 3.945-5.815 7.88-8.75 11.8C529.257 263.842 476.662 338.9 479 395c2.765-3.28 4.111-6.545 5.559-10.566l.698-1.922c.733-2.023 1.457-4.048 2.18-6.074l1.448-4.002q1.41-3.896 2.802-7.796a483 483 0 0 1 2.552-6.917l1.109-2.938.973-2.53c.871-2.5.871-2.5.679-6.255l2-1c.857-1.973 1.632-3.982 2.375-6 2.815-7.383 6.17-14.46 9.625-21.562 5.074-10.45 9.863-20.914 14.063-31.75 2.193-5.554 4.675-11.426 8.937-15.688l.5-2c.5-2 .5-2 2.5-4l.875-3 1.125-3 1.799-.802c3.16-1.72 4.654-4.403 6.545-7.358l1.23-1.87q1.3-1.981 2.59-3.97c2.24-3.457 4.511-6.893 6.777-10.332l1.344-2.045c5.05-7.677 10.335-15.175 15.715-22.623l1.595-2.214q4.153-5.765 8.323-11.516a713 713 0 0 0 5.633-7.883c5.327-7.567 10.893-14.909 16.628-22.172 3.127-3.972 6.088-7.961 8.821-12.215zm-72 24v5h1v-5zm-42 5 1 2Zm41 2v8h1v-8zm-42 1 1 3Zm-1 4 1 4Zm96 2 10-1v-1c-4.3-.195-6.009.004-10 2m-137 1v5h1v-5zm83 1v8h1v-8zm-43 1v7h1v-7zm-1 7c-1.56 11.83-2.347 23.47-2.316 35.404.003 2.53-.02 5.057-.045 7.586-.043 11.594 1.231 22.62 3.361 34.01h1l-.217-3.563c-.879-15.587-.899-31.142-.846-46.75q.009-3.903.014-7.806.017-9.44.049-18.881zm-57 9v2l2-1zm17-13-2.437 11.688-.698 3.341-1.292 6.2A1044 1044 0 0 0 451 224l-3-1 2-2c-.324-3.81-.856-5.784-3-9l1-3h-4l-1 7-2-1v2l-1.812-1c-2.242-1.208-2.242-1.208-5.188-1l-.687 2.375C432 220 432 220 429.375 221.313L427 222l-1-3-3 5 9 1v2l-1.937.375L428 228l-1 2c-2.062 1.125-2.062 1.125-4 2l2 7-1.812.313c-2.582.81-3.523 1.568-5.188 3.687-.361 2.283-.361 2.283-.187 4.688l.082 2.449L418 252l-3-1v8l-4-1v2l-2 1 .625 2.313C410 266 410 266 408 269c.29 2.033.584 4.067.914 6.094.086 1.906.086 1.906-1.476 3.844-1.673 1.932-1.673 1.932-1.266 4.16.68 3.172 1.373 6.051 2.91 8.925 1.046 2.254 1.068 3.644.918 6.102V302c1.839 2.287 1.839 2.287 4.625 2.125L417 304v8l-3-3-3 1a696 696 0 0 0 8.563 10.188l1.69 1.98c1.782 1.869 3.642 3.344 5.747 4.832v-4l7 2v-2c1.938.313 1.938.313 4 1l1 3-2 1 1.938.75c2.606 1.58 2.354 2.418 3.062 5.25 1.992 1.142 1.992 1.142 4 2-1.508-4.733-3.124-9.395-4.98-14.004-4.684-11.712-8.447-23.466-11.52-35.683l-.52-2.025c-2.23-8.766-3.605-17.247-3.98-26.288h2l.078 2.316c.657 12.404 3.703 23.72 8.871 35 1.133 2.893 1.64 5.613 2.051 8.684h2v5h3l2-6h3l-1 2v3l2.313.438C452 309 452 309 455 310v-6h6l-1-3-1 2-2-1c-.625-2.062-.625-2.062-1-4h2l1 2v-2h4l.75 2.313c1.67 4.925 3.46 9.804 5.25 14.687 1.406-3.803.574-6.447-.512-10.277l-1.049-3.748q-.562-1.956-1.127-3.913l-1.068-3.806a875 875 0 0 0-2.163-7.533 389 389 0 0 1-2.103-7.528l-.998-3.574-.866-3.21L458 269c-2.007-.779-2.007-.779-4-1-1.047-2.066-1.047-2.066-1.75-4.562l-.734-2.504L451 259l5 3c1.214-.995 1.214-.995 1.133-2.95-.02-7.03-.295-14.028-.633-21.05-.542-11.518-.829-22.346 1.063-33.773.423-3.122.513-6.082.437-9.227zm-27 16a101 101 0 0 0-3 6l1 2 3-2c.25-3.084.25-3.084 0-6zm10 0v4l1-4zm21 14-1 5h4l-1-5zm3 5v3l2-1zm-5 2c-.15 7.057-.15 7.057 1 14h1v-5l2-1-3-8zm2 14 1 2Zm206 0a213 213 0 0 0-1.187 4.813l-.668 2.707c-.402 2.508-.402 2.508 1.117 4.304 1.802 1.456 1.802 1.456 4.738 1.176l-1-13zm-75 9-2 2 4-1zm62 13-1 3q-2.962.643-5.926 1.277c-3.648 1.271-4.974 3.541-7.074 6.723l-.562 2.25c-.438 1.75-.438 1.75-2.5 3L635 285c2.036 1.294 2.036 1.294 4.563.313 2.61-1.047 2.61-1.047 3.125-3.375L643 280l2-1v4h5a595 595 0 0 0 3.063-5.812l1.722-3.27c1.584-2.905 1.584-2.905.215-5.918zm-155 8 1 4Zm103 23 1 2 1-2zm22.875 2L623 303l1 2 5-6c-2.244-.228-2.244-.228-4.125 2M603 303l-2.562.438c-2.787.643-3.8 1.235-5.438 3.562v4l-1.687.316c-2.768.818-4.866 2.096-7.313 3.622-4.824 2.992-4.824 2.992-7.203 3.933-2.594 1.63-2.8 3.342-3.547 6.254l-.734 2.758L574 330h-3v3h-2l1 4h-5l2 8c10.298.542 16.994-3.842 25-10l1 3c4.158-4.402 4.158-4.402 6-10h2.25c3.307-1.203 3.512-1.936 5-5l.953-2.187C608 319 608 319 609 318c.04-2 .043-4 0-6l1.813-.375c2.45-.58 2.45-.58 5.187-2.625l-1-4-1 3h-7c1.255-2.51 2.5-2.871 5-4l-1-3c-3.955 0-4.734.317-8 2m-154 8 1 2Zm21 4 1 3Zm147.203 2.57a598 598 0 0 0-3.523 3.555l-1.875 1.883a2363 2363 0 0 0-5.93 5.992l-4.02 4.047Q596.921 338.016 592 343l2 1-2 1.75c-2.443 2.247-2.443 2.247-2 6.25 6.684-1.28 10.868-4.648 16-9l-2-5 4-2v-4c4.554-.37 4.554-.37 6.813 1.5L616 335v-8l5 3 1-3-3-1v-6h3v-5c-2.388-.226-2.388-.226-4.797 2.57M317 320l2 3v-3zm3 6v2l-2 1q1.404 1.659 2.813 3.313l1.582 1.863A88 88 0 0 0 327 339c-2.022-7.364-2.022-7.364-7-13m108 6 3 3v-3zm18 4 1 2Zm164 2-1 2 3-1zm-283 1 1 2Zm257 12 2 2 3-1zm-214 9c-.167 2.917-.167 2.917 0 6l2 2c.167-2.917.167-2.917 0-6zm241 3-10 8 2 4 1.688-2.312c3.045-3.54 5.914-5.222 10.312-6.688l-3-1zm-238 10c-.083 4.833.047 9.237 1 14h1c.15-7.057.15-7.057-1-14zm218 1 1 2Zm2.438 2.938-3.067 2.214L588 381v1c4.318-.508 8.033-1.197 12-3v-6c-2.255 0-4.861 2.701-6.562 3.938M622 374c-1.845.781-3.651 1.655-5.437 2.563-5.403 2.591-10.69 4.462-16.438 6.125-7.926 2.342-15.3 5.492-22.75 9.062l-3.074 1.468c-4.943 2.026-4.943 2.026-8.301 5.782l9-2v3h-3c-2.6 6.806-2.6 6.806-3 14l2-1v-2h2l-2 10 4-1c-4.417 5.094-9.755 7.918-15.625 11.125q-2.836 1.56-5.664 3.133l-2.522 1.38c-2.056 1.28-3.568 2.576-5.189 4.362 5.454-1.678 10.414-4.021 15.521-6.521 3.477-1.666 6.651-2.943 10.479-3.479v4h3l1 6-3 1 3 1c.688 2.063.688 2.063 1 4l-3 1c-.09 3.227.197 5.89 1 9v4c1.92 1.774 1.92 1.774 4 3l3-2-1-3 1.688.14c9.932.47 15.712-4.214 23.406-10.042 2.168-1.97 2.168-1.97 2.187-4.852L608 441l1.938-.562c2.455-1.353 2.455-1.353 2.687-4.813L613 432c1.063-2.437 1.063-2.437 2-4l-3-1v-2h6l-1-1.75c-1.344-3.023-1.157-5.487-.5-8.687 2.243-3.833 5.672-5.47 9.5-7.563l-.5-2.312C625 402 625 402 625 399h-2l-1 2-2-7h-3l-2-5-1 3-4-2c.375-2.937.375-2.937 1-6l2-1 1 2 10-10zm-37.625 9.5L583 385c1.975-.348 1.975-.348 4-1l1-2c-2.124-.226-2.124-.226-3.625 1.5M354 389l1 2 2-1zm265 0 1 3 3-1zm4 3 1 2h2v-2zm-263 2c4.311 5.218 8.886 9.87 13.875 14.438l2.086 1.927q2.514 2.323 5.039 4.635l2-1c-3.297-5.318-6.416-8.172-11.715-11.445-3.033-2.064-5.406-4.538-7.875-7.235-1.331-1.548-1.331-1.548-3.41-1.32m145.065 5.48c-1.923.763-3.85 1.511-5.78 2.258l-3.715 1.465-3.382 1.333c-6.04 2.683-6.04 2.683-10.34 7.465l-.57 2.14-.685 2.457-.656 2.652-.739 2.789c-2.821 10.894-5.11 21.906-7.198 32.961l-.505 2.62c-2.737 14.452-3.662 28.756-1.495 43.38 2.326-2.326 2.91-4.1 4-7.187l1-2.793c1.098-3.317 2.052-6.658 3-10.02 5.092-17.318 5.092-17.318 9-25l2-1 1 2 2-6-2 1v2h-2l2-8h2l1 4 .262-2.063c1.069-7.097 3.135-12.516 6.738-18.687l1.471-2.594c4.864-8.467 10.136-16.692 15.928-24.556 2.668-3.211 2.668-3.211 3.601-7.1-5.832 0-10.561 2.342-15.935 4.48M677 396v3Zm-3 4-6 3v5c1.915-.122 1.915-.122 4-1 1.88-2.356 1.88-2.356 3-5zm-17 16c-5.827 5.88-10.807 11.307-14 19h6l.313-2.875C650 429 650 429 653 427v-3c3 0 3 0 6 1l.813-2.812c1.114-2.993 1.664-4.344 4.187-6.188 2.188-.687 2.188-.687 4-1l-1-6c-4.06 0-7.214 4.334-10 7m-37-2 1 3 1-3zm-421 13c3.802 3.213 8.155 5.15 12.625 7.25l2.352 1.14 2.25 1.063 2.049.974c1.807.826 1.807.826 3.724-.427-3.049-3.81-5.598-4.549-10.16-5.5-2.298-.624-3.483-1.55-4.84-3.5v-1zm453 5 1 3 1-3zm-425 4c2.038 4.06 2.038 4.06 6 6 1.394.067 2.792.085 4.188.063L241 442l-3-2-3 1v-4zm410 0c-1.628 2.323-1.628 2.323-3 5l1 3 2-2c2.625-.625 2.625-.625 5-1-.791-2-.791-2-2-4zm-95 5-1 2 3-1zm-5 3-1 2 3-1zm-326.896 4.454c-2.787.43-5.578.835-8.37 1.237l-5.336.801-2.521.367c-1.971.311-3.927.717-5.877 1.141l-1 2 3 1-5 7c2.746-1.162 4.294-2.294 6.438-4.437C196.19 453.6 202.056 452.96 208 452l2.526-.415c24.361-3.845 48.128-2.792 72.58-.653l2.406.21q2.226.195 4.452.4c4.704.418 9.32.513 14.036.458-3.634-2.248-7.288-2.503-11.45-2.816l-2.214-.186c-2.34-.195-4.682-.378-7.024-.56l-4.572-.381c-4.578-.379-9.158-.725-13.74-1.057l-2.156-.16c-17.883-1.292-34.987-1.138-52.74 1.614M525 452l-1 2 3-1zm97 0 1 3Zm-309 1v1h6v-1zm6 1v1h6v-1zm203 0-2 3 4-2zm-34 3 1 2Zm28 2-1 2 3-1zm56 2 1 2Zm45-5c-.8 3.287-1.097 4.71 0 8h-8l-1-3c-7.037 2.234-7.037 2.234-12 7l-2.25.75c-3.801 1.728-5.296 3.885-7.75 7.25v2c13.17-.658 23.941-7.407 35-14l-3-8zm-266 6c3.445 2.296 5.938 2.54 10 3-3.445-2.296-5.938-2.54-10-3m-128 11-2 2c-2.625.625-2.625.625-5 1l-1-2-3 1v3l6-1v2l-3.875.438c-2.382.268-3.97.484-6.125 1.562l1 2-1.687.313c-2.77.823-4.916 2.089-7.313 3.687v1l2.438.375L205 489l1 2-5 1 4 1c-2.625 4.875-2.625 4.875-6 6l-1 6 1-2 2.5 1.688c4.265 1.6 5.8.992 9.863-.633 1.977-1.033 1.977-1.033 2.637-4.055l2 1v6l7-2-1-2-4 2c.688-2.375.688-2.375 2-5 2.625-1.312 2.625-1.312 5-2l.313 2.375c.463 2.955.463 2.955 3.687 4.625l-1-5c2.873 2.422 3.708 4.597 4.688 8.188l.761 2.73L234 513l1-3 3 1-.375 2.25L238 516a150 150 0 0 0 6 4c1.254 2.592 1.095 3.663.313 6.438-.61 2.738-.61 2.738 1.437 5.312 2.12 2.455 2.12 2.455 5.25 3.25l3-2-2 6h7v2l5 1 2-3c3.625-1.187 3.625-1.187 7-2l.375-1.937L274 533l2-1v-8l-6 1-1-5 3-1-4-1 5-7-2-1 5-2-1.937-.812C272 506 272 506 271 503h2c.688-2.354.688-2.354 1-5l-2-3c-.125-2.687-.125-2.687 0-5h-6l2.063-2.562c2.315-4.108 2.015-5.948.937-10.438l-3 2c-.25 3.084-.25 3.084 0 6h-3v-3l-9 1v-5l-3.187-.375c-4.71-.772-7.859-1.989-11.813-4.625l-.754 1.863c-1.47 2.522-2.56 3.127-5.184 4.325l-2.09.98c-1.627.686-3.296 1.273-4.972 1.832l7-6c-2.667-1.333-4.167-.671-7 0v-3zm32 6v2c3 1.333 3 1.333 6 0v-2zm297.938 16.375c-5.188 1.836-9.96 3.199-15.497 3.484-6.63.382-12.194 1.51-18.351 3.907l-2.212.834a1314 1314 0 0 0-6.94 2.65q-4.547 1.732-9.098 3.453l-2.242.853c-6.133 2.318-12.334 4.359-18.593 6.307-5.887 2.228-7.736 5.428-10.317 10.938-4.95 12.77-6.084 26.689-7.688 40.199l-.321 2.697c-.56 5.09-.778 10.126-.869 15.243-.28 13.616-1.979 26.864-4.082 40.296C455.34 635.263 454.68 643.84 455 653c3.747-.57 5.452-2.088 8.082-4.754l2.326-2.342 2.404-2.466 2.37-2.385c6.592-6.68 12.75-13.669 18.693-20.928l2.305-2.805c3.711-4.73 3.254-9.497 2.593-15.316L493.5 600c-2.522-21.25 2.112-40.603 12.938-58.937l1.05-1.79c5.094-8.277 11.192-14.205 19.325-19.46q2.52-1.677 5.039-3.36l2.579-1.717c4.149-2.803 8.205-5.731 12.256-8.673l2.174-1.573A977 977 0 0 0 563 494c-3.952-1.317-6.338-.013-10.062 1.375M213 507l1 3 2-3zm-6 2v2h2v-2zm33 10v5l3-3zm210.5 12.063-1.906 1.722c-2.505 3.48-2.946 6.952-2.288 11.184a98 98 0 0 0 1.632 5.968l.591 2.073c.478 1.667.973 3.329 1.471 4.99h2c.511-3.144 1.007-6.29 1.5-9.437l.434-2.663c.884-5.707 1.207-11.125 1.066-16.9-1.91 0-3.18 1.831-4.5 3.063M269 541v2l3-1zm-34 7v3Zm69 5-2 2h2v2l-2.687-1c-3.022-.912-5.197-1.183-8.313-1v6l3.438 1.313L300 564l1 3 6-1v2h-2l1 3 8 1 1 3c2.972-1.125 5.334-2.223 8-4 2.043-.414 2.043-.414 4.188-.625L331 570c-2.99-3.335-5.895-5.215-10-7h-2l-1-3-6-1v-3l-2.875-.375C306 555 306 555 304 553m-26 4 1 4c2.293.86 2.293.86 5 1 2.335-1.834 2.335-1.834 4-4zm284 2-1 2 3-1zm-165 2 1 2Zm162 0-1 2 3-1zm-175.187 3-3.293 1.125L378 566a88 88 0 0 0-1 5c1.113 1.327 1.113 1.327 3.938 1.25L384 572l2-3 5-1c2.277-2.815 2.277-2.815 2-6-3.468 0-5.913.873-9.187 2M556 563l-1 2 3-1zm-196 6-1 2 6 2-2-4zm-11 1v1h5v-1zm5 1v2h2v-2zm-8 4v2l3-1z"/><path fill="#101010" d="M916 234c222.512 0 222.512 0 277.125 53.688 24.123 24.333 38.285 55.18 45.125 88.5l.458 2.224c3.074 16.031 3.662 31.866 3.604 48.15l-.005 3.222c-.044 15.277-.393 30.175-3.307 45.216l-.52 2.86c-4.813 26.103-13.932 51.446-29.48 73.14l-1.225 1.712c-15.044 20.7-34.07 36.625-56.775 48.288l-1.97 1.03C1079.232 638.165 988.809 627 916 627zm84 69v254c67.896 1.531 67.896 1.531 124.117-29.965 25.103-25.649 31.104-63.236 31.133-97.66l.002-2.181c-.053-36.26-6.708-71.574-32.56-98.608C1090.046 297.388 1041.011 303 1000 303M1412 232h102c4.5 11.249 4.5 11.249 6.02 15.606l1.049 2.992 1.099 3.16 1.187 3.394q1.262 3.606 2.52 7.214a17430 17430 0 0 0 7.449 21.293 9162 9162 0 0 0 13.238 37.529c6.412 18.073 12.788 36.16 19.147 54.252q8.331 23.698 16.728 47.373a15775 15775 0 0 1 19.842 56.338 14645 14645 0 0 0 18.309 51.928c6.696 18.879 13.35 37.772 19.994 56.67l1.153 3.277 2.208 6.288a2471 2471 0 0 0 5.8 16.367q.783 2.19 1.573 4.376c1.684 4.72 1.684 4.72 1.684 6.943h-91l-13.192-43.344-1.29-4.24-2.605-8.564a6500 6500 0 0 0-6.159-20.16l-1.005-3.275q-.905-2.948-1.817-5.893l-.785-2.56-.678-2.196C1534 535 1534 535 1534 533h-142l-2 9a329 329 0 0 1-2.183 7.425l-.632 2.069q-1.022 3.34-2.052 6.678l-1.443 4.71q-1.891 6.179-3.793 12.355-1.914 6.231-3.823 12.466c-4.015 13.102-8.044 26.2-12.074 39.297h-91c3.376-11.252 3.376-11.252 4.723-15.147l.927-2.689.983-2.828 1.056-3.056q1.716-4.953 3.436-9.905l1.207-3.481a7547 7547 0 0 1 19.064-54.257c5.707-16.07 11.352-32.163 16.979-48.262l5.36-15.328.668-1.912c4.724-13.509 9.47-27.01 14.222-40.51l1.177-3.344 5.86-16.64q5.889-16.726 11.775-33.454l1.184-3.361a50465 50465 0 0 0 17.124-48.75l6.22-17.72 1.242-3.54q3.58-10.206 7.15-20.417 2.967-8.492 5.944-16.982a6205 6205 0 0 0 2.498-7.15q1.722-4.937 3.455-9.872l1.02-2.937.959-2.724c.27-.774.54-1.548.82-2.346 1.14-2.872 2.565-5.624 3.947-8.388m51 65-.527 1.81a8365 8365 0 0 1-13.785 46.94l-1.04 3.499c-8.243 27.693-16.813 55.287-25.392 82.878l-3.369 10.84q-1.176 3.784-2.357 7.569l-1.413 4.544-.656 2.098c-1.027 2.858-1.027 2.858-1.461 5.822h101c-2.507-9.2-2.507-9.2-5.242-18.317l-.62-1.978-1.321-4.21q-1.072-3.408-2.139-6.817-1.537-4.913-3.078-9.824c-8.372-26.702-16.666-53.427-24.744-80.22l-1.803-5.97c-7.797-25.806-7.797-25.806-11.053-38.664zM1701 234c162.701 0 162.701 0 184.938 5.688l3.078.765c29.378 7.666 53.234 24.455 68.984 50.547 7.646 13.47 12.109 28.673 14 44l.336 2.441c4.008 34.61-2.388 72.228-23.527 100.489-12.712 15.96-27.353 26.737-45.809 35.07l-3.61 1.652C1863.448 490.074 1823.153 487 1785 487v140h-84zm84 69v115c48.54 1.74 48.54 1.74 89.777-19.59 11.501-12.471 13.918-28.85 13.355-45.18-.758-12.812-4.77-26.08-14.132-35.23-24.982-20.503-58.518-15-89-15"/><path fill="#1F6548" d="M456 277c2.56 1.28 2.699 2.242 3.688 4.875l.824 2.117C461 286 461 286 460 289c-3.19-4.186-4.504-6.706-4-12"/><path fill="#236949" d="M200 263c2.375-.187 2.375-.187 5 0l2 3c-2.606.93-3.642 1.15-6.25.063L199 265z"/><path fill="#246749" d="M574 425h2v6l-3-1z"/><path fill="#236A47" d="M268 496h3l-1 5h-2z"/><path fill="#1D664C" d="m459 291 4 1v4l-3-1c-.687-2.062-.687-2.062-1-4"/><path fill="#1F6142" d="M593 472h6v2h-5z"/></svg>